<svg viewBox="4 4 79.37 41.51" xmlns="http://www.w3.org/2000/svg">
    <path transform="translate(110.82 -118.583)" d="M-69.177 164.03c-5.079-.462-9.54-2.62-11.502-5.565-1.04-1.56-1.304-3.314-.761-5.054 1.243-3.984 7.992-9.258 18.587-14.524a143.979 143.979 0 0 1 2.61-1.271c.59-.272.736-.357.748-.438.009-.06-.015-.112-.058-.128-.15-.058-5.05 1.326-8.315 2.347-7.96 2.491-16.74 5.829-22.6 8.592-6.785 3.2-11.006 6.238-11.746 8.454-.132.396-.133.906-.001 1.257.114.307.487.704.884.941 2.386 1.429 8.125 1.721 14.984.764.468-.065.83-.097.839-.073.007.023.094.21.193.414.125.258.163.378.124.392-.031.011-.572.122-1.202.247a67.313 67.313 0 0 1-7.923 1.113c-.458.037-1.513.058-2.816.057-2.193-.002-2.69-.032-4.1-.255-2.99-.473-4.847-1.523-5.396-3.05-.35-.977-.221-2.054.4-3.334 1.675-3.446 6.86-7.743 14.935-12.375.802-.46 2.22-1.243 2.893-1.598l.511-.27.052-.366c.08-.565.31-1.683.464-2.267a20.802 20.802 0 0 1 15.082-14.862 21.884 21.884 0 0 1 2.874-.511c.982-.111 3.307-.111 4.288 0 3.441.388 6.522 1.495 9.33 3.35 1.248.827 2.247 1.659 3.388 2.824a20.479 20.479 0 0 1 4.202 6.222 21.415 21.415 0 0 1 1.614 6.194c.017.17.037.31.046.31.103 0 3.005-1.354 4.422-2.063 4.052-2.027 6.903-3.875 8.585-5.566 1.404-1.412 1.866-2.58 1.407-3.562-.629-1.343-2.962-2.248-6.47-2.51l-.758-.056-.103-.501c-.056-.276-.092-.512-.08-.524.056-.056 3.573-.067 4.378-.015 3.37.22 5.639.943 6.842 2.18 1.156 1.189 1.176 2.939.056 4.917-1.08 1.906-3.29 4.15-6.44 6.538-3.043 2.305-7.28 4.936-11.633 7.22l-.664.349-.131.517c-1.333 5.25-4.765 9.847-9.45 12.662a20.697 20.697 0 0 1-9.1 2.9c-.79.061-2.69.049-3.489-.024zm24.07-32.638c-.66-.062-1.277-.363-1.781-.867-.571-.57-.831-1.17-.864-1.988-.023-.598.052-.981.287-1.465.51-1.047 1.544-1.686 2.725-1.684 1.533.002 2.765 1.09 2.98 2.634.173 1.235-.505 2.509-1.629 3.06-.582.285-1.065.372-1.718.31z" style="fill:#007ac3;stroke-width:.04579754"></path>
</svg>