<svg viewBox="106 106 300 300" fill="none" xmlns="http://www.w3.org/2000/svg">
    <path fill="#FF1A1E" d="M114.036 186.357V106h19.085v61.257h31.807v19.1h-50.892ZM246.413 106l-30.591 80.357h80.357L265.587 106h-19.174Zm9.588 29.708 11.418 33.247h-22.836l11.418-33.247ZM106 296.179l30.592-80.357h19.173l30.592 80.357H106Zm51.598-17.403-11.421-33.247-11.416 33.247h22.837ZM325.643 106h29.191c17.952 0 26.175 10.752 26.175 22.072 0 9.797-6.44 15.302-7.374 16.1l-.028.025.17.107c1.691 1.059 10.794 6.758 10.794 18.85 0 12.875-10.553 23.203-26.86 23.203h-32.068V106Zm21.79 32.398V123.97h3.699c5.619 0 8.634 2.827 8.634 7.637 0 4.209-2.778 6.333-3.486 6.874l-.038.03-.039.03c-.025 0-.077-.005-.163-.013-.383-.034-1.434-.13-3.675-.13h-4.932Zm15.486 21.646c0 5.233-3.699 8.205-9.318 8.205h-6.168v-16.411h4.796c7.127 0 10.69 3.819 10.69 8.206ZM145.905 325.643h-29.191V406h32.068c16.309 0 26.861-10.328 26.861-23.201 0-12.104-9.119-17.805-10.798-18.854l-.165-.104.039-.034c.97-.835 7.361-6.335 7.361-16.093 0-11.32-8.223-22.071-26.175-22.071Zm-7.402 17.966v14.431h4.934c2.241 0 3.291.094 3.674.128.085.008.137.012.162.012l.026-.019.046-.036c.7-.532 3.493-2.655 3.493-6.878 0-4.809-3.015-7.638-8.634-7.638h-3.701Zm6.168 44.283c5.619 0 9.318-2.972 9.318-8.206 0-4.386-3.562-8.205-10.69-8.205h-4.796v16.411h6.168Zm181.113-62.249 27.902 40.037L325.643 406h25.531l14.646-22.212L380.332 406H406l-28.18-40.32 28.041-40.037h-25.809l-14.232 21.789-14.366-21.789h-25.67Zm-.141-69.642c0-22.189 17.988-40.179 40.178-40.179 22.191 0 40.179 17.99 40.179 40.179 0 22.189-17.988 40.178-40.179 40.178-22.19 0-40.178-17.989-40.178-40.178Zm19.527 0c0 11.406 9.247 20.651 20.651 20.651 11.405 0 20.653-9.245 20.653-20.651s-9.248-20.653-20.653-20.653c-11.404 0-20.651 9.247-20.651 20.653ZM256 325.643c-22.19 0-40.178 17.989-40.178 40.178C215.822 388.013 233.81 406 256 406c22.192 0 40.179-17.987 40.179-40.179 0-22.189-17.987-40.178-40.179-40.178Zm0 60.832c-11.406 0-20.654-9.246-20.654-20.654 0-11.406 9.248-20.651 20.654-20.651s20.653 9.245 20.653 20.651c0 11.408-9.247 20.654-20.653 20.654Z" clip-rule="evenodd" fill-rule="evenodd"></path>
</svg>