<svg viewBox="0 0 223.72 36" fill="none" xmlns="http://www.w3.org/2000/svg">
    <g clip-path="url(#a)">
        <path fill="#407BFF" d="M54.287 10.106c-8.032 0-13.696 5.477-13.696 12.947C40.59 30.523 46.255 36 54.287 36c8.033 0 13.697-5.477 13.697-12.947.004-7.47-5.66-12.947-13.697-12.947Zm0 21.513c-5.252 0-8.753-3.586-8.753-8.566s3.5-8.565 8.753-8.565 8.754 3.585 8.754 8.565c.003 4.98-3.5 8.566-8.754 8.566ZM193.591 23.6c0 5.327-3.04 8.018-7.674 8.018-4.633 0-7.673-2.688-7.673-8.018V10.756h-4.894v12.845c0 8.215 5.045 12.399 12.564 12.399 7.518 0 12.564-4.232 12.564-12.4V10.757h-4.891v12.845h.004ZM86.371 10.106c-4.12 0-7.621 1.793-9.475 4.98V0h-4.894v22.852c0 8.018 5.664 13.145 13.545 13.145 8.085 0 13.75-5.378 13.75-13.097 0-8.16-6.28-12.794-12.926-12.794ZM85.6 31.62c-5.2 0-8.705-3.586-8.705-8.566s3.5-8.565 8.704-8.565c5.253 0 8.754 3.585 8.754 8.565 0 4.98-3.501 8.566-8.754 8.566ZM213.88 20.81c-3.142-.398-5.82-.646-5.82-2.986 0-1.942 1.855-3.436 5.098-3.436 3.089 0 4.891 1.395 5.046 3.286h4.841c-.102-4.232-3.863-7.569-9.939-7.569-6.076 0-9.992 3.286-9.992 8.117 0 5.626 5.355 6.422 9.784 6.97 3.191.398 5.872.697 5.872 3.038 0 1.942-1.907 3.486-5.612 3.486-3.553 0-5.509-1.442-5.611-3.486h-4.943c.154 4.48 4.172 7.766 10.558 7.766s10.558-3.235 10.558-8.215c-.007-5.627-5.414-6.423-9.84-6.97ZM114.232 31.12l-8.293-20.366h-5.354l10.607 24.597h5.921l10.608-24.597h-5.2l-8.289 20.366Zm41.403-21.013c-8.032 0-13.696 5.477-13.696 12.947 0 7.47 5.664 12.947 13.696 12.947 8.033 0 13.697-5.477 13.697-12.947 0-7.47-5.664-12.947-13.697-12.947Zm0 21.513c-5.253 0-8.753-3.586-8.753-8.566s3.5-8.565 8.753-8.565 8.754 3.585 8.754 8.565c0 4.98-3.501 8.566-8.754 8.566ZM134.571.249c-1.956 0-3.398 1.394-3.398 3.285 0 1.892 1.442 3.337 3.398 3.337 1.956 0 3.399-1.442 3.399-3.337 0-1.894-1.439-3.286-3.399-3.286Zm-2.417 35.101h4.891V10.756h-4.891V35.35Z"></path>
        <path fill="#1F495E" d="M23.576 9.933c-1.92 0-3.743.418-5.372 1.163a12.871 12.871 0 0 0-5.623-1.282C5.643 9.814 0 15.27 0 21.978v13.525h4.887V21.978c0-4.102 3.451-7.44 7.694-7.44h.085c2.452 0 4.63 1.13 5.999 2.889a7.245 7.245 0 0 1 1.61 4.551l-.003 6.678c0 1.17-.985 2.122-2.195 2.122s-2.195-.952-2.195-2.122v-6.559c0-1.714.605-3.296 1.615-4.555a6.598 6.598 0 0 0-4.48-2.05 11.823 11.823 0 0 0-2.022 6.605v6.559c0 3.776 3.177 6.847 7.082 6.847s7.082-3.071 7.082-6.847l.004-6.678c0-2.725-.933-5.242-2.502-7.27.3-.033.605-.05.912-.05 4.243 0 7.694 3.337 7.694 7.44v13.405h4.887V22.097c0-6.708-5.643-12.164-12.578-12.164Z"></path>
    </g>
    <defs>
        <clipPath id="a">
            <path d="M0 0h223.714v36H0z" fill="#fff"></path>
        </clipPath>
    </defs>
</svg>