<svg viewBox="50 46.19 352 423.81" fill="none" xmlns="http://www.w3.org/2000/svg">
    <rect fill="currentColor"></rect>
    <path d="M369.964 342.001H306V470.001H337.982V438.019H401.946V342.001H369.964ZM369.964 405.965H337.982V373.983H369.964V405.965Z" fill="black"></path>
    <path d="M113.964 342.001H50V470.001H81.982V438.019H145.946V342.001H113.964ZM113.964 405.965H81.982V373.983H113.964V405.965ZM241.964 342.001H178V470.001H273.946V342.001H241.964ZM241.964 405.965V437.947H209.982V373.983H241.964V405.965Z" fill="black"></path>
    <path fill-rule="evenodd" clip-rule="evenodd" d="M51.375 222V90.141V46.188H95.328H181.86H223.066H225.813V222H181.86V90.141H95.328V222H51.375ZM358 90V133.975V177.95H314V133.975V90H270V133.975V177.95V221.926H314H358V266H50V310H402V266V221.926V177.95V133.975V90H358Z" fill="black"></path>
</svg>