<svg xmlns="http://www.w3.org/2000/svg" fill="none" viewBox="0 0 371 89" height="89" width="371">
<path fill="black" d="M226.17 6.69776H216.131C214.675 6.69776 213.909 5.96976 213.909 4.55207V3.09606C213.909 1.64005 214.637 0.912048 216.131 0.912048H242.914C244.332 0.912048 245.06 1.64005 245.06 3.09606V4.55207C245.06 5.96976 244.332 6.69776 242.914 6.69776H232.875V36.0095C232.875 37.4655 232.147 38.2318 230.653 38.2318H228.277C226.86 38.2318 226.132 37.5038 226.132 36.0095V6.69776H226.17Z"></path>
<path fill="black" d="M259.773 2.67469C260.195 1.4869 261 0.87384 262.226 0.87384H265.597C266.9 0.87384 267.705 1.4869 268.05 2.67469L279.698 35.6648C279.966 36.4311 279.966 37.0441 279.621 37.5039C279.276 37.9637 278.702 38.1936 277.897 38.1936H275.483C274.18 38.1936 273.376 37.5806 273.031 36.3928L270.387 28.6146H257.321L254.754 36.3161C254.409 37.5422 253.566 38.1553 252.302 38.1553H249.888C249.083 38.1553 248.508 37.9254 248.164 37.4656C247.819 37.0058 247.819 36.3928 248.087 35.6265L259.735 2.63638L259.773 2.67469ZM268.739 23.0971L265.444 13.135C265.253 12.5985 265.099 12.0238 264.908 11.3341C264.716 10.6444 264.563 10.0314 264.448 9.45662C264.256 8.80525 264.103 8.07725 263.988 7.34924H263.873C263.682 8.07725 263.49 8.80525 263.337 9.45662C263.145 10.0697 262.992 10.6827 262.877 11.3341C262.762 11.9855 262.57 12.5985 262.417 13.135L259.045 23.0971H268.778H268.739Z"></path>
<path fill="black" d="M297.668 19.3038L288.089 3.55596C287.629 2.82796 287.552 2.2149 287.821 1.67848C288.089 1.18037 288.664 0.912156 289.545 0.912156H292.495C293.645 0.912156 294.526 1.41026 295.062 2.4448L299.354 10.0697C299.622 10.6444 299.928 11.1808 300.197 11.679C300.465 12.1771 300.733 12.6752 300.925 13.135C301.155 13.6714 301.423 14.1312 301.653 14.591H301.768C301.959 14.1312 302.189 13.6331 302.457 13.135C302.649 12.7135 302.917 12.2154 303.185 11.679C303.454 11.1425 303.76 10.5678 304.067 10.0314L308.435 2.40648C309.009 1.41026 309.852 0.87384 311.002 0.87384H313.952C314.833 0.87384 315.408 1.14205 315.676 1.64016C315.945 2.13827 315.868 2.75132 315.408 3.51764L305.791 19.2655L315.753 35.5498C316.251 36.3161 316.366 36.9675 316.06 37.4273C315.791 37.9254 315.178 38.1553 314.259 38.1553H311.538C310.389 38.1553 309.508 37.6572 308.971 36.6227L303.99 28.1165C303.683 27.5801 303.377 27.082 303.109 26.5456C302.84 26.0091 302.572 25.5493 302.381 25.1279C302.151 24.6298 301.921 24.17 301.691 23.7102H301.576C301.385 24.17 301.155 24.6298 300.886 25.1279C300.695 25.5493 300.427 26.0091 300.158 26.5456C299.89 27.082 299.584 27.5801 299.315 28.1165L294.373 36.6227C293.798 37.6189 292.955 38.1553 291.805 38.1553H289.123C288.204 38.1553 287.591 37.9254 287.323 37.4273C287.016 36.9292 287.131 36.3161 287.629 35.5498L297.591 19.2655L297.668 19.3038Z"></path>
<path fill="black" d="M327.286 3.09617C327.286 1.64016 328.014 0.87384 329.432 0.87384H331.846C333.263 0.87384 333.991 1.60184 333.991 3.09617V35.9713C333.991 37.4273 333.263 38.1936 331.846 38.1936H329.432C327.976 38.1936 327.286 37.4656 327.286 35.9713V3.09617Z"></path>
<path fill="black" d="M346.559 35.0516C346.137 34.6684 345.831 34.247 345.678 33.7489C345.524 33.2508 345.678 32.676 346.214 31.9863L347.364 30.3004C347.785 29.6874 348.245 29.3808 348.705 29.3425C349.164 29.3042 349.739 29.4575 350.429 29.8406C350.735 30.0322 351.157 30.3004 351.617 30.6453C352.076 30.9901 352.651 31.2583 353.303 31.5265C353.954 31.7947 354.682 32.063 355.448 32.2545C356.253 32.4461 357.096 32.5611 357.977 32.5611C359.74 32.5611 361.081 32.1779 362.077 31.3733C363.073 30.5686 363.533 29.5724 363.533 28.308C363.533 27.1202 363.111 26.124 362.23 25.3577C361.349 24.5913 360.314 23.9016 359.012 23.2503C357.709 22.6372 356.33 21.9858 354.835 21.3728C353.341 20.7597 351.962 19.9934 350.659 19.1121C349.356 18.2309 348.283 17.158 347.44 15.8936C346.597 14.6292 346.137 13.0199 346.137 11.1041C346.137 9.45652 346.444 7.9622 347.095 6.62114C347.747 5.28008 348.628 4.16891 349.739 3.21101C350.85 2.25311 352.191 1.52511 353.724 1.027C355.257 0.528893 356.904 0.260681 358.667 0.260681C359.74 0.260681 360.774 0.337313 361.809 0.567209C362.805 0.758789 363.725 0.988685 364.529 1.2569C365.334 1.52511 366.1 1.83164 366.751 2.17648C367.403 2.52132 367.901 2.82785 368.284 3.09606C369.395 3.9007 369.625 4.89692 368.974 6.08471L368.016 7.80893C367.633 8.57525 367.173 8.95841 366.637 8.95841C366.1 8.95841 365.564 8.80515 365.027 8.53694C364.261 8.07714 363.341 7.61735 362.307 7.15756C361.272 6.69777 360.008 6.46787 358.552 6.46787C356.789 6.46787 355.41 6.85103 354.414 7.61735C353.417 8.38367 352.881 9.4182 352.881 10.6443C352.881 11.7938 353.303 12.7517 354.184 13.518C355.065 14.2843 356.1 14.9357 357.402 15.5488C358.705 16.1618 360.084 16.7366 361.579 17.3496C363.073 17.9627 364.453 18.6907 365.755 19.5719C367.058 20.4532 368.131 21.5261 368.974 22.8288C369.817 24.1315 370.277 25.7408 370.277 27.6949C370.277 29.1893 370.008 30.6453 369.434 31.9863C368.859 33.3274 368.054 34.5152 367.02 35.5114C365.985 36.5076 364.682 37.3123 363.15 37.887C361.617 38.4617 359.893 38.7683 357.939 38.7683C356.598 38.7683 355.333 38.6533 354.145 38.3851C352.958 38.1169 351.885 37.8104 350.889 37.4272C349.892 37.044 349.049 36.6226 348.283 36.2011C347.517 35.7796 346.942 35.3581 346.482 35.0133L346.559 35.0516Z"></path>
<path fill="black" d="M216.131 49.0753C215.863 48.309 215.863 47.6959 216.208 47.2361C216.553 46.7763 217.128 46.5464 217.932 46.5464H220.729C222.032 46.5464 222.837 47.1595 223.181 48.3856L230.806 70.8771C230.998 71.4518 231.151 72.0266 231.304 72.6396C231.458 73.2527 231.611 73.8274 231.764 74.4022C231.918 75.0152 232.071 75.6666 232.224 76.3563H232.339C232.492 75.7049 232.607 75.0535 232.76 74.4022C232.914 73.8274 233.067 73.2527 233.22 72.6396C233.374 72.0266 233.565 71.4518 233.757 70.8771L241.458 48.3856C241.765 47.1595 242.569 46.5464 243.872 46.5464H246.554C247.359 46.5464 247.934 46.7763 248.278 47.2361C248.623 47.6959 248.623 48.309 248.355 49.0753L236.439 82.1037C236.056 83.2532 235.251 83.8279 233.987 83.8279H230.615C229.35 83.8279 228.546 83.2532 228.163 82.1037L216.208 49.0753H216.131Z"></path>
<path fill="black" d="M253.298 48.7305C253.298 47.2745 254.026 46.5082 255.444 46.5082H273.414C274.87 46.5082 275.636 47.2362 275.636 48.6922V50.1482C275.636 51.5659 274.908 52.2939 273.414 52.2939H260.003V62.1794H270.387C271.843 62.1794 272.609 62.9074 272.609 64.3251V65.7811C272.609 67.2371 271.881 67.9651 270.387 67.9651H260.003V78.0422H274.218C275.674 78.0422 276.441 78.7703 276.441 80.1879V81.6439C276.441 83.1 275.713 83.828 274.218 83.828H255.405C253.949 83.828 253.26 83.1 253.26 81.6056V48.7305H253.298Z"></path>
<path fill="black" d="M282.571 48.7305C282.571 47.2745 283.299 46.5082 284.717 46.5082H294.794C296.633 46.5082 298.089 46.5848 299.124 46.7381C300.158 46.8913 301.078 47.1595 301.883 47.5044C303.76 48.309 305.293 49.5735 306.442 51.2977C307.592 53.0219 308.166 55.1676 308.166 57.6965C308.166 58.8076 308.013 59.9188 307.745 60.9533C307.477 61.9878 307.055 62.9841 306.519 63.8653C305.982 64.7466 305.331 65.5512 304.565 66.2409C303.798 66.9306 302.917 67.467 301.921 67.8502V67.9651L302.227 68.4249C302.227 68.4249 302.457 68.8081 302.611 69.038C302.764 69.2679 302.917 69.5361 303.109 69.9193L309.239 81.1458C309.699 81.9122 309.776 82.5635 309.469 83.0233C309.163 83.4831 308.588 83.7513 307.707 83.7513H304.871C303.722 83.7513 302.84 83.2532 302.304 82.2187L295.752 69.8426H289.238V81.5673C289.238 83.0233 288.51 83.7896 287.093 83.7896H284.679C283.223 83.7896 282.533 83.0616 282.533 81.5673V48.7305H282.571ZM295.369 64.0186C297.17 64.0186 298.626 63.4822 299.66 62.4476C300.695 61.4131 301.231 59.9188 301.231 58.0796C301.231 56.8918 301.001 55.8573 300.503 54.9377C300.043 54.0564 299.277 53.3667 298.281 52.9453C297.821 52.7537 297.285 52.5621 296.672 52.4855C296.058 52.3705 295.254 52.3322 294.219 52.3322H289.238V64.0569H295.33L295.369 64.0186Z"></path>
<path fill="black" d="M322.458 52.2939H312.419C310.963 52.2939 310.197 51.5659 310.197 50.1482V48.6922C310.197 47.2362 310.925 46.5082 312.419 46.5082H339.202C340.62 46.5082 341.348 47.2362 341.348 48.6922V50.1482C341.348 51.5659 340.62 52.2939 339.202 52.2939H329.163V81.6056C329.163 83.0616 328.435 83.828 326.941 83.828H324.565C323.148 83.828 322.42 83.1 322.42 81.6056V52.2939H322.458Z"></path>
<path fill="black" d="M344.682 80.686C344.26 80.3028 343.954 79.8814 343.8 79.3833C343.647 78.8851 343.8 78.3104 344.337 77.6207L345.486 75.9348C345.908 75.3218 346.368 75.0152 346.827 74.9769C347.287 74.9386 347.862 75.0919 348.552 75.475C348.858 75.6666 349.28 75.9348 349.739 76.2797C350.199 76.6245 350.774 76.8927 351.425 77.1609C352.077 77.4291 352.805 77.6974 353.571 77.8889C354.376 78.0805 355.219 78.1955 356.1 78.1955C357.862 78.1955 359.203 77.8123 360.2 77.0077C361.196 76.203 361.656 75.2068 361.656 73.9424C361.656 72.7546 361.234 71.7584 360.353 70.9921C359.472 70.2257 358.437 69.536 357.134 68.8847C355.832 68.2716 354.452 67.6202 352.958 67.0072C351.464 66.3941 350.084 65.6278 348.781 64.7465C347.479 63.8653 346.406 62.7924 345.563 61.528C344.72 60.2636 344.26 58.6543 344.26 56.7385C344.26 55.0909 344.567 53.5966 345.218 52.2555C345.869 50.9145 346.751 49.8033 347.862 48.8454C348.973 47.8875 350.314 47.1595 351.847 46.6614C353.379 46.1633 355.027 45.8951 356.789 45.8951C357.862 45.8951 358.897 45.9717 359.931 46.2016C360.928 46.3932 361.847 46.6231 362.652 46.8913C363.456 47.1595 364.223 47.466 364.874 47.8109C365.526 48.1557 366.024 48.4623 366.407 48.7305C367.518 49.5351 367.748 50.5313 367.096 51.7191L366.139 53.4433C365.755 54.2097 365.296 54.5928 364.759 54.5928C364.223 54.5928 363.686 54.4395 363.15 54.1713C362.384 53.7115 361.464 53.2518 360.429 52.792C359.395 52.3322 358.131 52.1023 356.675 52.1023C354.912 52.1023 353.533 52.4854 352.536 53.2518C351.54 54.0181 351.004 55.0526 351.004 56.2787C351.004 57.4282 351.425 58.3861 352.307 59.1524C353.188 59.9187 354.222 60.5701 355.525 61.1832C356.828 61.7962 358.207 62.371 359.701 62.984C361.196 63.5971 362.575 64.3251 363.878 65.2063C365.181 66.0876 366.254 67.1605 367.096 68.4632C367.939 69.7659 368.399 71.3752 368.399 73.3293C368.399 74.8237 368.131 76.2797 367.556 77.6207C366.982 78.9618 366.177 80.1496 365.142 81.1458C364.108 82.142 362.805 82.9466 361.272 83.5214C359.74 84.0961 358.016 84.4027 356.061 84.4027C354.72 84.4027 353.456 84.2877 352.268 84.0195C351.08 83.7513 350.008 83.4448 349.011 83.0616C348.015 82.6784 347.172 82.257 346.406 81.8355C345.64 81.414 345.065 80.9925 344.605 80.6477L344.682 80.686Z"></path>
<path fill="black" d="M13.6788 72.2949H32.4537C32.2238 70.8389 32.1854 69.3062 32.2621 67.7353H13.6788C12.4144 67.7353 11.3799 68.7698 11.3799 70.0342C11.3799 71.2987 12.4144 72.3332 13.6788 72.3332V72.2949ZM24.6372 64.6317H32.6835C32.9901 63.099 33.4115 61.5664 33.9863 60.0721H24.6372C23.3728 60.0721 22.3382 61.1066 22.3382 62.371C22.3382 63.6355 23.3728 64.67 24.6372 64.67V64.6317ZM33.1817 75.3985H2.29896C1.03453 75.3985 0 76.433 0 77.6974C0 78.9619 1.03453 79.9964 2.29896 79.9964H35.404C34.4461 78.617 33.7181 77.0844 33.1817 75.4368V75.3985Z"></path>
<path fill="black" d="M67.0531 40.7992C60.8076 41.4506 54.677 44.5158 49.8492 49.3437C39.7338 59.4591 38.2394 74.4789 46.554 82.7552C50.0791 86.2803 54.8303 88.1578 60.2328 88.1578C61.1907 88.1578 62.1486 88.0811 63.1065 87.9662C69.1988 87.2382 75.2144 84.1729 79.9656 79.4217C90.081 69.3063 91.5753 54.2864 83.2607 46.0102C79.1992 41.9487 73.4519 40.0712 67.0531 40.7609V40.7992ZM73.6434 73.1762C70.2716 76.548 66.1335 78.6554 62.0337 79.1535C58.317 79.6133 55.0602 78.6554 52.8378 76.4714C48.01 71.6436 49.5044 62.2945 56.133 55.6658C59.9646 51.8342 64.984 49.5352 69.5436 49.5352C72.5323 49.5352 75.0994 50.4931 76.9386 52.3323C81.7664 57.1601 80.2721 66.5092 73.6434 73.1379V73.1762ZM156.827 40.7992C150.582 41.4506 144.451 44.5158 139.624 49.3437C129.508 59.4591 128.014 74.4789 136.328 82.7552C139.815 86.242 144.681 88.1578 150.046 88.1578C157.057 88.1578 164.261 84.9775 169.778 79.46C179.894 69.3446 181.388 54.3247 173.073 46.0485C169.012 41.987 163.226 40.1095 156.866 40.7992H156.827ZM163.418 73.1762C156.789 79.8049 147.44 81.2992 142.612 76.4714C137.784 71.6436 139.279 62.2945 145.907 55.6658C149.739 51.8342 154.758 49.5352 159.318 49.5352C162.307 49.5352 164.874 50.4931 166.713 52.3323C171.541 57.1601 170.046 66.5092 163.418 73.1379V73.1762ZM185.871 35.8564C185.335 35.205 172.537 19.917 147.862 9.4567C125.255 -0.160614 87.8204 -7.28739 38.2011 13.1734C37.09 13.6331 36.247 14.4761 35.7872 15.5873C35.3274 16.6984 35.3274 17.8862 35.7872 18.9974C36.7068 21.258 39.3506 22.3692 41.6113 21.4113C88.2418 2.17666 123.148 8.69038 144.183 17.5414C166.828 27.0437 178.936 41.3739 179.051 41.4889C179.894 42.5234 181.158 43.0981 182.499 43.0981C182.576 43.0981 182.652 43.0981 182.729 43.0981C183.687 43.0598 184.568 42.715 185.335 42.1019C187.212 40.531 187.519 37.7339 185.948 35.8181L185.871 35.8564Z"></path>
</svg>
