<svg xmlns:xlink="http://www.w3.org/1999/xlink" xmlns="http://www.w3.org/2000/svg" version="1.1" viewBox="0 0 697 208" height="208px" width="697px">
    <title>Logo/Zorgi/White</title>
    <g fill-rule="evenodd" fill="none" stroke-width="1" stroke="none" id="Logo/Zorgi/White">
        <g id="Zorgi">
            <g fill="#000" id="Group-3">
                <path id="Shape" d="M583.616008,175.61773 C591.504008,175.61773 597.082008,179.95673 598.716008,187.45073 L588.462008,187.45073 C587.672008,185.25373 586.096008,183.84473 583.447008,183.84473 C580.009008,183.84473 577.641008,186.54973 577.641008,191.78973 C577.641008,197.02973 580.009008,199.73473 583.447008,199.73473 C586.096008,199.73473 587.616008,198.43873 588.462008,196.12873 L598.716008,196.12873 C597.082008,203.39773 591.504008,207.96073 583.616008,207.96073 C574.377008,207.96073 567.838008,201.76373 567.838008,191.78973 C567.838008,181.87273 574.377008,175.61773 583.616008,175.61773 Z M680.197008,175.61773 C689.381008,175.61773 695.862008,181.70373 695.862008,191.28373 C695.862008,192.18473 695.805008,193.14273 695.692008,194.09973 L673.887008,194.09973 C674.225008,198.21273 676.761008,200.12873 679.859008,200.12873 C682.564008,200.12873 684.084008,198.77773 684.874008,197.08573 L695.130008,197.08573 C693.608008,203.22773 688.031008,207.96073 680.197008,207.96073 C670.958008,207.96073 664.307008,201.76373 664.307008,191.78973 C664.307008,181.81773 670.845008,175.61773 680.197008,175.61773 Z M615.791008,175.61773 C620.468008,175.61773 623.794008,177.76073 625.483008,180.52073 L625.483008,176.06973 L635.118008,176.06973 L635.118008,207.51073 L625.483008,207.51073 L625.483008,203.05873 C623.737008,205.82073 620.411008,207.96073 615.735008,207.96073 C608.071008,207.96073 601.931008,201.65073 601.931008,191.73373 C601.931008,181.81773 608.071008,175.61773 615.791008,175.61773 Z M334.723008,175.61773 C342.837008,175.61773 347.344008,180.12673 347.963008,186.32473 L339.061008,186.32473 C338.779008,184.18373 337.146008,182.77473 334.441008,182.77473 C332.187008,182.77473 330.946008,183.67673 330.946008,185.19773 C330.946008,186.306309 331.777531,186.996365 333.074782,187.525344 L333.457782,187.67232 L333.457782,187.67232 L333.864232,187.811865 C333.933823,187.834577 334.004311,187.857035 334.075658,187.879267 L334.513728,188.010165 L334.513728,188.010165 L335.205322,188.19925 L335.205322,188.19925 L335.932614,188.383623 L335.932614,188.383623 L337.997924,188.886492 L337.997924,188.886492 L338.532588,189.021985 L338.532588,189.021985 L339.340633,189.237976 L339.340633,189.237976 L339.880599,189.392418 L339.880599,189.392418 L340.419367,189.556774 L340.419367,189.556774 L340.955041,189.732379 C344.689516,191.004101 348.057292,193.200698 348.132008,198.38173 C348.132008,203.84773 343.286008,207.96073 335.398008,207.96073 C327.004008,207.96073 321.367008,203.28373 320.918008,197.19973 L330.440008,197.19973 C330.666008,199.39773 332.639008,200.86173 335.286008,200.86173 C337.765008,200.86173 339.061008,199.73473 339.061008,198.32573 C339.061008,196.923113 337.750474,196.188692 335.854382,195.615704 L335.406758,195.486111 L335.406758,195.486111 L334.940324,195.360866 L334.940324,195.360866 L334.457062,195.238583 L334.457062,195.238583 L331.857607,194.623184 L331.857607,194.623184 L331.04238,194.420401 L331.04238,194.420401 L330.496008,194.27623 L330.496008,194.27623 L329.949636,194.123259 C325.856795,192.939513 321.931008,190.896464 321.931008,185.36673 C321.931008,180.01373 326.495008,175.61773 334.723008,175.61773 Z M512.953008,175.61773 C522.138008,175.61773 528.620008,181.70373 528.620008,191.28373 C528.620008,192.18473 528.563008,193.14273 528.450008,194.09973 L506.644008,194.09973 C506.983008,198.21273 509.518008,200.12873 512.615008,200.12873 C515.320008,200.12873 516.842008,198.77773 517.630008,197.08573 L527.886008,197.08573 C526.366008,203.22773 520.786008,207.96073 512.953008,207.96073 C503.714008,207.96073 497.065008,201.76373 497.065008,191.78973 C497.065008,181.81773 503.600008,175.61773 512.953008,175.61773 Z M425.671008,175.61773 C430.349008,175.61773 433.671008,177.76073 435.362008,180.52073 L435.362008,176.06973 L444.998008,176.06973 L444.998008,207.51073 L435.362008,207.51073 L435.362008,203.05873 C433.615008,205.82073 430.293008,207.96073 425.614008,207.96073 C417.953008,207.96073 411.808008,201.65073 411.808008,191.73373 C411.808008,181.81773 417.953008,175.61773 425.671008,175.61773 Z M661.602008,175.73173 L661.602008,185.92973 L658.954008,185.92973 C654.390008,185.92973 651.742008,187.50773 651.742008,192.91673 L651.742008,207.51073 L642.106008,207.51073 L642.106008,176.06973 L651.742008,176.06973 L651.742008,181.30973 C653.941008,177.98573 657.376008,175.73173 661.602008,175.73173 Z M553.187008,175.73173 L553.187008,185.92973 L550.539008,185.92973 C545.974008,185.92973 543.326008,187.50773 543.326008,192.91673 L543.326008,207.51073 L533.691008,207.51073 L533.691008,176.06973 L543.326008,176.06973 L543.326008,181.30973 C545.523008,177.98573 548.962008,175.73173 553.187008,175.73173 Z M471.482008,175.73173 L471.482008,185.92973 L468.833008,185.92973 C464.269008,185.92973 461.621008,187.50773 461.621008,192.91673 L461.621008,207.51073 L451.986008,207.51073 L451.986008,176.06973 L461.621008,176.06973 L461.621008,181.30973 C463.818008,177.98573 467.257008,175.73173 471.482008,175.73173 Z M394.169008,175.73173 C401.943008,175.73173 406.959008,180.69073 406.959008,189.14273 L406.959008,207.51073 L397.380008,207.51073 L397.380008,190.43773 C397.380008,186.32473 395.013008,184.07073 391.353008,184.07073 C387.688008,184.07073 385.322008,186.32473 385.322008,190.43773 L385.322008,207.51073 L375.743008,207.51073 L375.743008,190.43773 C375.743008,186.32473 373.377008,184.07073 369.717008,184.07073 C366.052008,184.07073 363.685008,186.32473 363.685008,190.43773 L363.685008,207.51073 L354.051008,207.51073 L354.051008,176.06973 L363.685008,176.06973 L363.685008,180.01373 C365.546008,177.47873 368.757008,175.73173 372.871008,175.73173 C377.604008,175.73173 381.435008,177.81573 383.576008,181.59073 C385.661008,178.26773 389.605008,175.73173 394.169008,175.73173 Z M487.261008,168.40673 L487.261008,176.06973 L493.570008,176.06973 L493.570008,184.07073 L487.261008,184.07073 L487.261008,196.69273 C487.261008,198.55173 488.047008,199.34073 490.190008,199.34073 L493.627008,199.34073 L493.627008,207.51073 L488.724008,207.51073 C482.189008,207.51073 477.626008,204.74973 477.626008,196.57873 L477.626008,184.07073 L473.792008,184.07073 L473.792008,176.06973 L477.626008,176.06973 L477.626008,168.40673 L487.261008,168.40673 Z M102.536008,33.2067299 L102.849297,33.2099421 C110.869181,33.3745368 117.34194,39.8440833 117.508711,47.864346 L117.512008,48.1817299 L117.512008,192.14973 C117.512008,200.315046 110.974706,206.954732 102.849297,207.121517 L102.536008,207.12473 L102.222683,207.121517 C94.2018726,206.956898 87.730051,200.486414 87.5633046,192.467076 L87.5600081,192.14973 L87.5600081,48.1817299 C87.5600081,40.0154261 94.0963356,33.3767025 102.222683,33.2099421 L102.536008,33.2067299 Z M618.609008,184.01373 C615.003008,184.01373 611.735008,186.71873 611.735008,191.73373 C611.735008,196.74773 615.003008,199.56573 618.609008,199.56573 C622.272008,199.56573 625.483008,196.80473 625.483008,191.78973 C625.483008,186.77473 622.272008,184.01373 618.609008,184.01373 Z M428.489008,184.01373 C424.883008,184.01373 421.613008,186.71873 421.613008,191.73373 C421.613008,196.74773 424.883008,199.56573 428.489008,199.56573 C432.151008,199.56573 435.362008,196.80473 435.362008,191.78973 C435.362008,186.77473 432.151008,184.01373 428.489008,184.01373 Z M680.085008,183.33773 C676.928008,183.33773 674.505008,185.25373 673.943008,188.74673 L686.001008,188.74673 C686.001008,185.31073 683.298008,183.33773 680.085008,183.33773 Z M512.841008,183.33773 C509.685008,183.33773 507.263008,185.25373 506.701008,188.74673 L518.759008,188.74673 C518.759008,185.31073 516.054008,183.33773 512.841008,183.33773 Z M146.346008,1.08872992 L146.659334,1.09194253 C154.680144,1.25656147 161.151965,7.72704582 161.318712,15.7463835 L161.322008,16.0637299 L161.322008,160.35873 C161.322008,168.524046 154.785681,175.163732 146.659334,175.330517 L146.346008,175.33373 L146.03272,175.330517 C138.01286,175.165898 131.541051,168.695414 131.374305,160.676076 L131.371008,160.35873 L131.371008,16.0637299 C131.371008,7.89841346 137.907336,1.25872751 146.03272,1.09194253 L146.346008,1.08872992 Z M59.6024201,0 C67.3581997,0.44797486 73.5298782,6.79673742 73.6975099,14.6237603 L73.7010081,14.9507299 L73.7010081,159.24373 C73.7010081,166.032965 69.1850012,171.765949 62.9925792,173.603093 C61.7354764,173.975972 60.4095404,174.188379 59.0383335,174.216518 L58.7250081,174.21973 L58.4117202,174.216518 C58.2809908,174.213835 58.1506728,174.209476 58.0207867,174.203463 L57.7469897,174.188303 L57.7469897,174.188303 L57.4234811,174.163953 L57.4234811,174.163953 L57.0523115,174.127356 L57.0523115,174.127356 L56.7161794,174.08615 L56.7161794,174.08615 L56.4198426,174.043397 L56.4198426,174.043397 L55.9440179,173.961983 L55.9440179,173.961983 C55.7966989,173.934317 55.6500287,173.90447 55.5041545,173.872496 L55.288273,173.823491 L55.288273,173.823491 L54.9509434,173.740105 L54.9509434,173.740105 L54.725065,173.679559 L54.725065,173.679559 L54.203624,173.525052 L54.203624,173.525052 L53.8264326,173.400163 L53.8264326,173.400163 L53.5234615,173.291646 L53.5234615,173.291646 L53.2963203,173.205385 L53.2963203,173.205385 L52.8733665,173.033275 L52.8733665,173.033275 L52.5240602,172.879531 L52.5240602,172.879531 L52.2987531,172.774621 L52.2987531,172.774621 L51.9127698,172.584081 L51.9127698,172.584081 L51.4022639,172.310222 L51.4022639,172.310222 L50.9761168,172.061532 L50.9761168,172.061532 L50.7788249,171.939897 L50.7788249,171.939897 L50.4621516,171.73567 L50.4621516,171.73567 L50.2789085,171.612257 L50.2789085,171.612257 L50.0972595,171.485987 C49.9727758,171.398088 49.8496537,171.308309 49.7279727,171.216718 L49.4281945,170.985099 L49.4281945,170.985099 L48.9602426,170.598408 L48.9602426,170.598408 L48.6308837,170.30639 L48.6308837,170.30639 L48.2459929,169.942346 L48.2459929,169.942346 L47.9584146,169.652867 L47.9584146,169.652867 L47.7105461,169.390285 L47.7105461,169.390285 L47.3378123,168.970384 L47.3378123,168.970384 L47.0151154,168.579784 L47.0151154,168.579784 L46.8786198,168.406186 L46.8786198,168.406186 L46.6573032,168.113093 L46.6573032,168.113093 L46.4426424,167.813857 L46.4426424,167.813857 L46.1530402,167.383897 L46.1530402,167.383897 L46.0295317,167.190275 L46.0295317,167.190275 L45.799163,166.810561 L45.799163,166.810561 L45.6244725,166.504543 L45.6244725,166.504543 L45.5209485,166.314907 L45.5209485,166.314907 L45.4201797,166.123799 C45.3546016,165.997221 45.2907218,165.869475 45.2286305,165.740703 C45.1169686,165.509136 45.0110013,165.274044 44.9110156,165.035819 L44.8296432,164.837968 L44.8296432,164.837968 L44.6932533,164.486674 L44.6932533,164.486674 L44.6184557,164.281978 L44.6184557,164.281978 L44.5028609,163.945635 L44.5028609,163.945635 L44.3896207,163.587737 L44.3896207,163.587737 L44.2336369,163.033694 L44.2336369,163.033694 C44.1372283,162.663952 44.0545998,162.288681 43.9863229,161.908425 C43.8489331,161.143257 43.7696546,160.357903 43.7532207,159.557092 L43.7500081,159.24373 L43.7500081,14.9507299 C43.7500081,6.9742302 49.9860274,0.454196733 57.8477985,0 L59.6024201,0 Z M14.9160081,28.5807299 L15.2292956,28.5839425 L15.6710919,28.5994396 L15.6710919,28.5994396 L16.165517,28.6321268 L16.165517,28.6321268 C16.40785,28.6521484 16.648558,28.6779428 16.8874953,28.7093716 L17.4050209,28.7866712 L17.4050209,28.7866712 C17.6504645,28.8277298 17.8947351,28.8749413 18.1368128,28.9280102 L18.5000358,29.0124089 L18.5000358,29.0124089 L18.9829678,29.1396949 L18.9829678,29.1396949 C19.2036333,29.2018079 19.4222656,29.268884 19.6387059,29.3407656 L20.0123632,29.4704072 L20.0123632,29.4704072 L20.2429956,29.5560905 L20.2429956,29.5560905 L20.7840409,29.7743118 L20.7840409,29.7743118 L21.043052,29.8876698 L21.043052,29.8876698 L21.2034872,29.9609255 L21.2034872,29.9609255 C21.3537452,30.0304619 21.5023693,30.102356 21.6496006,30.1766091 L21.8479297,30.2785988 L21.8479297,30.2785988 L22.2800945,30.5138968 L22.2800945,30.5138968 L22.7980162,30.8209479 L22.7980162,30.8209479 L22.9249459,30.9003884 C23.1306914,31.0310674 23.3334637,31.166743 23.5326579,31.3071557 L23.7260599,31.4455672 L23.7260599,31.4455672 L24.2180688,31.8201452 L24.2180688,31.8201452 L24.5156452,32.0623193 L24.5156452,32.0623193 L24.8705701,32.3689177 L24.8705701,32.3689177 L24.9339576,32.4257436 C25.193616,32.6592161 25.444866,32.9018591 25.687418,33.1529595 L25.9381583,33.4195054 L25.9381583,33.4195054 C26.1041252,33.599303 26.2654034,33.7833909 26.4221619,33.9713798 L26.7241426,34.3463066 L26.7241426,34.3463066 C26.8672009,34.5289437 27.0059502,34.7151381 27.1403515,34.904645 L27.4445243,35.3505422 L27.4445243,35.3505422 L27.6552559,35.6808509 L27.6552559,35.6808509 C29.0213488,37.8860483 29.830921,40.4722791 29.8877955,43.2434045 L29.8910081,43.5567299 L29.8910081,132.87373 C29.8910081,138.903919 26.3269518,144.101697 21.1908046,146.475487 C19.371612,147.316299 17.3548579,147.802887 15.2292956,147.846517 L14.9160081,147.84973 L14.6026457,147.846517 C14.2923686,147.84015 13.9844118,147.824348 13.6790503,147.799388 C13.3302696,147.770895 12.9841689,147.730345 12.6418802,147.678209 L12.2188788,147.607552 L12.2188788,147.607552 L11.6914362,147.501777 L11.6914362,147.501777 C11.478199,147.45499 11.2668539,147.403709 11.0573148,147.348 L10.7895933,147.274137 L10.388866,147.153409 L10.388866,147.153409 L10.0400427,147.038171 L10.0400427,147.038171 L9.6509379,146.898184 L9.6509379,146.898184 L9.56513764,146.865659 C9.41393976,146.807814 9.26345003,146.747392 9.1141918,146.68462 L8.90827308,146.59619 L8.90827308,146.59619 L8.36748772,146.346107 L8.36748772,146.346107 L7.99086205,146.15608 L7.99086205,146.15608 L7.48169738,145.877364 L7.48169738,145.877364 L7.35052025,145.801326 C7.20679783,145.717038 7.06472928,145.630499 6.92424075,145.541688 L6.5926356,145.325884 L6.5926356,145.325884 L6.05189924,144.946236 L6.05189924,144.946236 L5.49771166,144.518421 L5.49771166,144.518421 L5.06994748,144.158665 L5.06994748,144.158665 L4.8959434,144.004337 L4.8959434,144.004337 L4.6469477,143.774921 L4.6469477,143.774921 L4.19187191,143.327502 L4.19187191,143.327502 L4.00653194,143.133984 L4.00653194,143.133984 L3.74098973,142.84426 L3.74098973,142.84426 L3.55686195,142.634138 L3.55686195,142.634138 L3.20189791,142.205626 L3.20189791,142.205626 L3.01798396,141.970304 L3.01798396,141.970304 L2.74497297,141.602251 L2.74497297,141.602251 L2.56188925,141.341607 L2.56188925,141.341607 L2.28016102,140.916013 L2.28016102,140.916013 L2.04092565,140.527995 L2.04092565,140.527995 L1.8447516,140.188673 L1.8447516,140.188673 L1.71952563,139.960742 L1.71952563,139.960742 C1.58987757,139.719801 1.46681286,139.475281 1.35036123,139.227041 C1.24570871,139.00396 1.14632455,138.7777 1.0524541,138.548596 L0.957328093,138.310604 L0.957328093,138.310604 L0.803838998,137.898908 L0.803838998,137.898908 C0.76030831,137.776643 0.718502919,137.6542 0.67825058,137.531055 C0.542874244,137.11685 0.425121531,136.694959 0.325809355,136.266074 L0.227939423,135.811171 L0.163353459,135.465054 L0.163353459,135.465054 L0.138285637,135.316932 C0.105743483,135.11859 0.0770867579,134.918848 0.0524109792,134.717874 C0.0322588306,134.553723 0.0147831569,134.388981 0,134.223463 L0,42.2069964 C0.682238907,34.5684181 7.0989971,28.5807299 14.9160081,28.5807299 Z M190.157008,27.4597299 C192.41876,27.4597299 194.563334,27.9610416 196.485688,28.8586211 C201.493685,31.1969022 204.993614,36.2234975 205.128941,42.0822227 L205.133008,42.4347299 L205.133008,131.75173 C205.133008,137.929553 201.393206,143.232803 196.053873,145.522042 L195.781306,145.635704 C195.304097,145.829224 194.814646,145.998853 194.314436,146.143106 L194.08946,146.206003 L194.08946,146.206003 L193.7996,146.281623 C192.779316,146.536599 191.717566,146.686918 190.626411,146.720513 L190.157008,146.72773 C181.990704,146.72773 175.351006,140.192377 175.184221,132.065092 L175.181008,131.75173 L175.181008,42.4347299 C175.181008,34.2684261 181.717336,27.6297025 189.84272,27.4629421 L190.157008,27.4597299 Z M389.075008,31.5397299 C419.318008,31.5397299 443.361008,53.9217299 443.361008,85.8267299 C443.361008,117.73173 419.167008,140.26273 389.075008,140.26273 C358.983008,140.26273 334.487008,117.73173 334.487008,85.8267299 C334.487008,53.9217299 358.983008,31.5397299 389.075008,31.5397299 Z M605.943008,31.8437299 C631.347008,31.8437299 649.797008,44.8467299 655.390008,66.6227299 L626.812008,66.6227299 C622.881008,59.5157299 615.621008,55.7347299 605.943008,55.7347299 C589.309008,55.7347299 578.271008,67.5297299 578.271008,85.9777299 C578.271008,105.63473 589.462008,117.12773 608.060008,117.12773 C620.913008,117.12773 629.836008,110.32473 633.768008,98.3777299 L600.955008,98.3777299 L600.955008,79.3237299 L657.206008,79.3237299 L657.206008,103.36873 C651.762008,121.66573 634.070008,139.96273 606.095008,139.96273 C574.340008,139.96273 551.961008,117.73173 551.961008,85.9777299 C551.961008,54.2227299 574.187008,31.8437299 605.943008,31.8437299 Z M321.925008,33.0517299 L321.925008,52.7107299 L276.258008,118.03473 L321.925008,118.03473 L321.925008,139.20373 L246.923008,139.20373 L246.923008,119.54873 L292.289008,54.2227299 L246.923008,54.2227299 L246.923008,33.0517299 L321.925008,33.0517299 Z M501.140008,33.0517299 C527.148008,33.0517299 540.153008,48.0237299 540.153008,66.4707299 C540.153008,79.7797299 532.896008,92.3287299 516.564008,97.1677299 L541.062008,139.20373 L511.877008,139.20373 L489.800008,99.1347299 L483.598008,99.1347299 L483.598008,139.20373 L457.742008,139.20373 L457.742008,33.0517299 L501.140008,33.0517299 Z M697.441008,33.0517299 L697.441008,139.20373 L671.585008,139.20373 L671.585008,33.0517299 L697.441008,33.0517299 Z M389.075008,54.9797299 C371.836008,54.9797299 360.950008,66.9237299 360.950008,85.8267299 C360.950008,104.42773 371.836008,116.67273 389.075008,116.67273 C406.012008,116.67273 417.050008,104.42773 417.050008,85.8267299 C417.050008,66.9237299 406.012008,54.9797299 389.075008,54.9797299 Z M499.629008,54.5247299 L483.598008,54.5247299 L483.598008,80.8377299 L499.629008,80.8377299 C509.306008,80.8377299 513.842008,75.8477299 513.842008,67.5297299 C513.842008,59.6667299 509.306008,54.5247299 499.629008,54.5247299 Z"></path>
            </g>
            <g transform="translate(175.181008, 27.459730)" id="Group-6"></g>
            <g transform="translate(0.000000, 28.580730)" id="Group-9"></g>
            <g transform="translate(0.000000, 28.580730)" id="Group-12"></g>
            <g transform="translate(131.371008, 1.088730)" id="Group-15"></g>
            <g transform="translate(131.371008, 1.088730)" id="Group-18"></g>
            <g transform="translate(43.750008, 0.000000)" id="Group-21"></g>
            <g transform="translate(43.750008, 0.000000)" id="Group-24"></g>
            <g transform="translate(87.560008, 33.206730)" id="Group-27"></g>
            <g transform="translate(87.560008, 33.206730)" id="Group-30"></g>
        </g>
    </g>
</svg>